<svg id="Camada_1" data-name="Camada 1" xmlns="http://www.w3.org/2000/svg" viewBox="0 0 38.34 46.96"><defs><style>.cls-1{stroke:#fff;stroke-miterlimit:10;stroke-width:2.31px;fill-rule:evenodd;}</style></defs><path class="cls-1" d="M61.75,51.51A9.49,9.49,0,0,1,62.84,47a10.56,10.56,0,0,1,3.66-4,10.15,10.15,0,0,0-8-4.45c-3.39-.34-6.63,2.06-8.35,2.06s-4.43-2-7.26-2a10.91,10.91,0,0,0-9.08,5.61,12.87,12.87,0,0,0-1.3,3.37c-1.65,6.46.94,14.43,4.11,19.12,1.82,2.69,4,5.76,6.9,5.64s3.83-1.82,7.19-1.82,4.28,1.82,7.24,1.75,4.88-2.76,6.72-5.45a26.18,26.18,0,0,0,3-6.34,10,10,0,0,1-5.91-9.05ZM56.26,34.9a10,10,0,0,0,2.3-7.09A9.71,9.71,0,0,0,49.77,38.1a8.21,8.21,0,0,0,6.49-3.17Z" transform="translate(-30.8 -26.62)"/></svg>