<svg id="Camada_1" data-name="Camada 1" xmlns="http://www.w3.org/2000/svg" viewBox="0 0 38 29.85"><path d="M63.76,35.05h-27a5.49,5.49,0,0,0-5.49,5.49V59.42a5.49,5.49,0,0,0,5.49,5.48h27a5.49,5.49,0,0,0,5.49-5.48V40.54A5.49,5.49,0,0,0,63.76,35.05Zm0,2.62a2.82,2.82,0,0,1,.65.08L53,50.69a3.68,3.68,0,0,1-5.53,0L36.08,37.75a2.82,2.82,0,0,1,.65-.08Zm2.86,21.75a2.86,2.86,0,0,1-2.86,2.86h-27a2.86,2.86,0,0,1-2.86-2.86V40.54a2.82,2.82,0,0,1,.21-1.09l11.43,13a6.31,6.31,0,0,0,9.47,0l11.43-13a2.82,2.82,0,0,1,.21,1.09Z" transform="translate(-31.24 -35.05)"/></svg>