<svg id="Camada_1" data-name="Camada 1" xmlns="http://www.w3.org/2000/svg" viewBox="0 0 23.97 48.93"><defs><style>.cls-1{fill:none;stroke:#000;stroke-miterlimit:10;stroke-width:2.31px;fill-rule:evenodd;}</style></defs><path class="cls-1" d="M43.91,50.28V72.82a.58.58,0,0,0,.59.59h8.37a.58.58,0,0,0,.58-.59V49.92h6.08a.59.59,0,0,0,.58-.54l.58-6.9a.58.58,0,0,0-.58-.64H53.45V37a2.08,2.08,0,0,1,2.08-2.08h4.68a.59.59,0,0,0,.59-.59v-6.9a.58.58,0,0,0-.59-.59h-7.9a8.4,8.4,0,0,0-8.4,8.4v6.65H39.73a.58.58,0,0,0-.59.59v6.9a.59.59,0,0,0,.59.59h4.18Z" transform="translate(-37.99 -25.63)"/></svg>