<?xml version="1.0" standalone="no"?>
<!DOCTYPE svg PUBLIC "-//W3C//DTD SVG 20010904//EN"
 "http://www.w3.org/TR/2001/REC-SVG-20010904/DTD/svg10.dtd">
<svg version="1.0" xmlns="http://www.w3.org/2000/svg"
 width="512.000000pt" height="512.000000pt" viewBox="0 0 512.000000 512.000000"
 preserveAspectRatio="xMidYMid meet">

<g transform="translate(0.000000,512.000000) scale(0.100000,-0.100000)"
fill="#000000" stroke="none">
<path d="M3936 5105 c-22 -8 -57 -31 -77 -52 -21 -21 -243 -317 -494 -658
l-456 -620 -287 -72 c-158 -40 -294 -73 -303 -73 -8 0 -273 263 -589 585 -400
408 -586 591 -615 605 -61 30 -144 27 -206 -6 -105 -58 -144 -181 -91 -294 9
-19 307 -330 672 -701 l655 -668 178 -724 178 -724 -50 -177 c-27 -98 -52
-181 -55 -184 -3 -3 -214 32 -468 77 -255 45 -475 81 -489 81 -52 0 -127 -31
-171 -70 -110 -97 -120 -278 -20 -383 60 -63 86 -70 717 -181 328 -59 611
-106 629 -106 84 0 180 55 222 125 18 31 71 202 154 499 l127 451 39 12 c22 6
46 12 55 12 11 1 114 -121 267 -314 l251 -314 -342 -396 c-188 -218 -353 -417
-366 -442 -33 -60 -39 -144 -16 -214 33 -98 146 -179 250 -179 48 0 121 25
159 54 57 43 868 991 900 1051 37 71 41 157 10 225 -12 25 -176 239 -366 476
l-344 431 -158 642 -158 641 160 217 c88 120 298 405 466 633 327 443 343 470
330 558 -10 66 -59 132 -123 165 -61 30 -114 34 -175 12z"/>
<path d="M2420 4749 c-337 -42 -512 -423 -328 -711 85 -131 227 -208 387 -208
130 0 235 43 326 135 92 91 135 196 135 326 0 280 -241 493 -520 458z"/>
</g>
</svg>
