<svg id="Camada_1" data-name="Camada 1" xmlns="http://www.w3.org/2000/svg" viewBox="0 0 47.28 47.28"><defs><style>.cls-1{fill:none;stroke:#000;stroke-miterlimit:10;stroke-width:2.31px;}</style></defs><path class="cls-1" d="M61.78,36.63a2.64,2.64,0,1,0,2.64,2.64A2.65,2.65,0,0,0,61.78,36.63Z" transform="translate(-26.33 -26.46)"/><path class="cls-1" d="M50.06,40.11a10,10,0,1,0,10,10A10,10,0,0,0,50.06,40.11Z" transform="translate(-26.33 -26.46)"/><path class="cls-1" d="M59,72.59H41A13.53,13.53,0,0,1,27.48,59.08v-18A13.53,13.53,0,0,1,41,27.61H59A13.52,13.52,0,0,1,72.46,41.12v18A13.52,13.52,0,0,1,59,72.59Z" transform="translate(-26.33 -26.46)"/></svg>