<?xml version="1.0" standalone="no"?>
<!DOCTYPE svg PUBLIC "-//W3C//DTD SVG 20010904//EN"
 "http://www.w3.org/TR/2001/REC-SVG-20010904/DTD/svg10.dtd">
<svg version="1.0" xmlns="http://www.w3.org/2000/svg"
 width="512.000000pt" height="512.000000pt" viewBox="0 0 512.000000 512.000000"
 preserveAspectRatio="xMidYMid meet">

<g transform="translate(0.000000,512.000000) scale(0.100000,-0.100000)"
fill="#000000" stroke="none">
<path d="M2032 4995 c-43 -36 -42 -73 4 -149 19 -32 46 -81 60 -107 l24 -49
-48 0 c-144 0 -247 -84 -293 -239 -12 -39 -19 -47 -69 -70 -36 -16 -78 -27
-122 -29 l-68 -4 0 76 c0 121 15 116 -313 116 -230 0 -276 -2 -295 -16 l-22
-15 0 -688 c0 -628 1 -690 17 -702 12 -11 74 -15 277 -17 143 -2 271 0 283 3
41 10 53 32 53 101 l0 64 68 0 c37 0 73 -4 80 -9 11 -6 -12 -44 -95 -157 -176
-243 -225 -373 -227 -604 -1 -151 14 -230 69 -361 112 -266 384 -492 685 -569
544 -139 1108 168 1261 685 27 90 36 277 20 381 -28 168 -78 273 -230 481 -75
102 -111 160 -111 178 0 14 -7 39 -15 54 -13 27 -13 30 17 57 79 74 89 201 21
276 -15 17 -15 19 0 36 53 58 60 146 18 226 -19 35 -26 58 -19 62 18 11 48 88
48 124 0 19 -9 53 -19 75 -17 38 -74 98 -102 107 -8 3 5 21 33 46 54 50 87
121 99 211 7 64 0 96 -25 113 -6 4 -57 8 -113 8 -57 0 -103 3 -103 7 0 4 23
55 51 114 49 105 50 108 35 142 -8 20 -23 40 -33 45 -10 6 -201 13 -443 17
l-425 8 -33 -28z m186 -109 c72 -38 131 -134 139 -227 5 -49 10 -63 30 -76 31
-20 69 -5 84 34 21 52 -10 171 -65 256 l-18 27 43 0 c24 0 67 -3 95 -6 l50 -6
-13 -51 c-24 -92 -14 -186 21 -209 19 -13 49 -9 68 9 14 12 18 31 18 76 0 34
7 87 16 119 l17 58 63 0 c35 0 64 -2 64 -4 0 -2 -15 -36 -34 -77 -54 -117 -95
-243 -120 -368 l-23 -116 -129 -5 c-71 -3 -136 -3 -145 2 -10 4 -21 31 -28 69
-22 107 -69 240 -134 369 -34 69 -63 128 -65 133 -6 12 37 8 66 -7z m-20 -396
c12 -41 26 -95 29 -120 8 -65 38 -116 83 -146 l39 -26 297 1 c294 2 297 2 320
-20 29 -27 31 -68 5 -96 -17 -18 -35 -21 -157 -25 -127 -5 -139 -7 -156 -28
-23 -28 -23 -42 1 -71 18 -22 27 -24 138 -27 148 -3 159 -6 178 -42 22 -43 19
-68 -14 -101 -29 -29 -30 -29 -155 -29 -123 0 -125 0 -145 -27 -14 -17 -19
-34 -15 -47 12 -40 32 -46 162 -46 123 0 124 0 153 -29 38 -38 38 -74 0 -112
l-29 -29 -169 0 c-186 0 -205 -5 -205 -55 0 -55 27 -65 179 -65 129 0 135 -1
158 -25 31 -30 32 -73 4 -109 l-20 -26 -318 0 c-370 0 -406 6 -562 89 -123 65
-245 100 -376 108 l-103 6 0 419 0 418 58 0 c91 0 233 50 273 96 9 11 28 51
43 91 48 128 84 154 206 150 l74 -2 24 -75z m802 70 c0 -23 -33 -87 -57 -113
-28 -28 -77 -47 -125 -47 -31 0 -32 1 -19 50 6 19 15 54 21 78 l11 42 84 0
c52 0 85 -4 85 -10z m-1600 -740 l0 -600 -195 0 -195 0 0 600 0 600 195 0 195
0 0 -600z m492 -621 l68 -32 -30 -34 c-73 -83 -106 -201 -89 -322 11 -74 30
-101 70 -101 47 0 57 27 52 143 -3 92 -2 106 19 146 13 25 40 58 61 74 37 30
37 30 89 17 30 -7 135 -15 242 -18 l188 -4 29 -62 c36 -77 59 -180 59 -268 0
-58 3 -69 22 -82 32 -23 54 -20 78 12 21 25 22 35 17 122 -4 61 -15 125 -31
175 -14 44 -24 81 -21 83 8 8 54 -31 79 -66 30 -43 51 -99 60 -162 11 -69 15
-76 41 -88 46 -21 85 7 85 62 0 47 -41 183 -69 228 -28 44 -28 48 -11 53 10 3
35 17 55 31 21 14 39 24 40 22 25 -27 174 -247 195 -288 59 -117 75 -191 75
-350 -1 -137 -2 -150 -33 -240 -132 -383 -536 -632 -957 -589 -344 35 -655
263 -763 561 -84 233 -60 476 66 678 41 65 234 330 241 330 2 0 35 -14 73 -31z"/>
<path d="M2362 2634 c-12 -8 -22 -25 -22 -37 0 -15 -16 -34 -47 -57 -67 -49
-96 -108 -89 -179 9 -97 78 -166 178 -178 55 -7 88 -36 88 -79 0 -38 -38 -74
-77 -74 -31 0 -73 42 -73 73 0 54 -52 79 -95 46 -25 -20 -27 -26 -21 -68 8
-58 45 -114 96 -143 30 -18 40 -29 40 -49 0 -75 102 -78 116 -4 4 24 15 40 33
49 84 44 125 160 88 249 -20 47 -89 105 -134 112 -70 11 -82 15 -97 31 -46 46
-19 116 47 122 42 4 77 -24 77 -61 0 -59 67 -89 105 -47 41 45 -7 166 -80 206
-19 10 -35 26 -35 35 0 24 -38 69 -59 69 -9 0 -27 -7 -39 -16z"/>
<path d="M1907 1449 c-26 -4 -64 -17 -84 -29 -37 -22 -38 -22 -90 -4 -45 15
-61 16 -107 7 -30 -6 -72 -24 -95 -38 -37 -25 -43 -26 -78 -14 -57 19 -141 15
-194 -8 -85 -38 -144 -117 -123 -163 11 -24 901 -635 963 -662 73 -31 160 -48
251 -48 86 0 153 10 499 75 145 27 201 33 221 26 15 -5 82 -43 148 -85 l119
-76 -38 -128 c-45 -148 -47 -165 -17 -186 19 -14 74 -16 399 -16 366 0 376 1
394 20 16 18 30 111 87 573 37 304 67 569 68 589 0 68 1 68 -306 68 -163 0
-283 -4 -294 -10 -11 -6 -27 -39 -41 -85 -12 -42 -26 -78 -30 -80 -8 -6 -86
50 -139 100 -126 119 -352 179 -528 141 -40 -8 -110 -31 -155 -50 -106 -46
-163 -56 -313 -56 l-123 0 -119 65 c-65 36 -134 67 -153 71 -67 11 -75 11
-122 3z m141 -139 l34 -16 -26 -18 c-26 -16 -28 -16 -88 18 -53 30 -58 35 -37
38 34 6 79 -2 117 -22z m-237 -67 c71 -38 129 -70 129 -73 -1 -3 -7 -13 -15
-24 -13 -17 -19 -15 -122 39 -187 100 -199 108 -177 116 37 15 58 8 185 -58z
m1364 37 c70 -24 115 -52 203 -127 35 -30 83 -64 108 -76 24 -11 43 -26 40
-33 -2 -6 -37 -119 -77 -250 -40 -132 -73 -240 -75 -242 -1 -2 -55 31 -120 72
-174 111 -156 109 -524 41 -272 -51 -315 -56 -400 -52 -52 2 -118 12 -146 21
-35 11 -187 109 -473 305 -232 159 -423 293 -424 297 -3 15 66 34 98 27 44 -8
496 -253 502 -272 18 -49 13 -49 341 -45 169 2 310 3 313 4 13 0 26 46 19 65
-18 48 -27 50 -292 50 -136 0 -248 2 -248 4 0 15 49 71 78 92 34 23 42 24 286
30 270 6 263 5 424 73 35 15 82 31 105 36 63 14 194 4 262 -20z m869 -552
c-34 -277 -63 -504 -63 -505 -1 -2 -132 -3 -292 -3 -229 0 -290 3 -286 13 2 6
71 230 152 497 81 267 149 488 152 493 2 4 93 7 201 7 l198 0 -62 -502z"/>
</g>
</svg>
