<svg id="Camada_1" data-name="Camada 1" xmlns="http://www.w3.org/2000/svg" viewBox="0 0 29.32 37.72"><path d="M52.63,71.22h0a1.32,1.32,0,0,1-1-.42C51.11,70.19,38,56,38,48.16a14.67,14.67,0,0,1,29.33,0c0,7.8-13.14,22-13.7,22.64A1.35,1.35,0,0,1,52.63,71.22Zm0-35.1a12.05,12.05,0,0,0-12,12c0,5.18,7.95,15.2,12,19.79,4.08-4.59,12-14.61,12-19.79A12.06,12.06,0,0,0,52.63,36.12Z" transform="translate(-37.96 -33.5)"/><path d="M52.63,54.12a6.6,6.6,0,1,1,6.6-6.6A6.62,6.62,0,0,1,52.63,54.12Zm0-10.58a4,4,0,1,0,4,4A4,4,0,0,0,52.63,43.54Z" transform="translate(-37.96 -33.5)"/></svg>