<?xml version="1.0" encoding="utf-8"?>
<!-- Generator: Adobe Illustrator 24.1.2, SVG Export Plug-In . SVG Version: 6.00 Build 0)  -->
<svg version="1.1" id="Camada_1" xmlns="http://www.w3.org/2000/svg" xmlns:xlink="http://www.w3.org/1999/xlink" x="0px" y="0px"
	 viewBox="0 0 512 512" style="enable-background:new 0 0 512 512;" xml:space="preserve">
<path d="M62.6,9.1c-6.2,1.5-15.3,6.8-19.7,11.6c-2.2,2.4-5.5,7.4-7.2,11.1c-3.1,6.5-3.2,7.2-3.5,22.7c-0.3,13.9-0.6,16.3-2.2,18
	c-3,3.2-6,10.7-6,14.9c0,6.9,2.1,11.8,7.5,17.1c5.6,5.7,10.2,7.5,18.7,7.5c5.2,0,5.9,0.3,9.7,4.1c2.3,2.3,4,4.4,3.7,4.6
	c-0.2,0.2-4.8,1.1-10.2,1.9c-5.5,0.8-11.5,1.9-13.4,2.6c-15.4,4.9-27.6,18.1-30.9,33.6C8.5,161.9,8,174,8,187.6v23.5l2.5,2.4
	l2.4,2.5H88h75.1l2.4-2.5l2.5-2.4v-23.5c0-13.6-0.5-25.7-1.1-28.8c-3.3-15.5-15.5-28.7-30.9-33.6c-1.9-0.7-7.9-1.8-13.4-2.6
	c-5.4-0.8-10-1.7-10.2-1.9c-0.3-0.2,1.4-2.3,3.7-4.6c3.9-3.8,4.5-4.1,9.8-4.1c8.6,0,14.3-2.4,19.4-8c5.1-5.7,7.3-11.9,6.4-18.5
	c-0.7-4.9-3.6-11.4-6.1-13.4c-1.3-1.1-1.6-3.7-1.6-14.4c0-7.1-0.5-14.7-1.2-16.9c-1.4-4.9-7.6-12-12.2-14.2c-2.2-1-4.2-3-5.2-5.2
	c-2.2-4.6-9.3-10.8-14.2-12.2C106.5,7.8,68.5,7.7,62.6,9.1z M109.5,26.5c1.6,1.5,2.5,3.6,2.5,5.5c0,4.1,3.9,8,8,8
	c1.9,0,4,0.9,5.5,2.5c2.2,2.1,2.5,3.3,2.5,10.3v7.8l-10.3-10.3c-8.8-8.8-10.8-10.3-13.5-10.3c-2.2,0-3.9,0.8-5.2,2.2
	C87.6,55.5,86.6,56,66.7,56c-13.3,0-13.9,0.1-16.2,2.5L48,60.9v-8.1c0-4.4,0.5-9.9,1.2-12.2c1.5-5.1,9.9-13.7,14.8-15.3
	c2-0.6,12-1.1,23.3-1.2C107,24,107.1,24,109.5,26.5z M108.7,64.2l3.3,3.2v11.9c0,15.2-1.1,18.9-7.5,25.2c-5.1,5.2-10.2,7.5-16.5,7.5
	c-6.3,0-11.4-2.3-16.5-7.5C65.3,98.4,64,94.4,64,81.6V72h9.3c13,0,21-2.4,28.2-8.4c1.7-1.4,3.2-2.5,3.5-2.6
	C105.2,61,106.9,62.4,108.7,64.2z M48,86.4c0,3.5,0.3,7.1,0.6,8c1,2.6-3.3,2-6.1-0.9C40.9,92,40,89.9,40,88c0-3.3,3.8-8,6.5-8
	C47.7,80,48,81.3,48,86.4z M133.5,82.5c1.6,1.5,2.5,3.6,2.5,5.5s-0.9,4-2.5,5.5c-2.8,2.9-7.1,3.5-6.1,0.9c0.3-0.9,0.6-4.5,0.6-8
	C128,79.1,129.3,78.2,133.5,82.5z M96,129.3c0,2.9-4.5,6.7-8,6.7s-8-3.8-8-6.7c0-1.6,1-1.8,8-1.8S96,127.7,96,129.3z M67.4,139.9
	c2.2,4.1,8.9,9.6,13.5,10.9c8.8,2.7,16.6,0.7,23.1-5.8c2.5-2.5,5-5.3,5.5-6.3c1-1.7,1.5-1.7,11.5-0.2c12.7,1.9,17.6,4.1,23.5,10.7
	c6.5,7.3,7.5,11.5,7.5,33V200h-8h-8v-12v-12h-8h-8v12v12H88H56v-12v-12h-8h-8v12v12h-8h-8v-17.8c0-21.5,1-25.7,7.5-33
	c5.8-6.4,10.8-8.8,22-10.6C66,136.7,65.8,136.7,67.4,139.9z"/>
<path d="M398.6,9.1c-6.2,1.5-15.3,6.8-19.7,11.6c-2.2,2.4-5.5,7.4-7.2,11.1c-3.1,6.5-3.2,7.2-3.5,22.7c-0.3,13.9-0.6,16.3-2.2,18
	c-3,3.2-6,10.7-6,14.9c0,6.9,2.1,11.8,7.5,17.1c5.6,5.7,10.2,7.5,18.7,7.5c5.2,0,5.9,0.3,9.7,4.1c2.3,2.3,4,4.4,3.7,4.6
	c-0.2,0.2-4.8,1.1-10.2,1.9c-5.5,0.8-11.5,1.9-13.4,2.6c-15.4,4.9-27.6,18.1-30.9,33.6c-0.6,3.1-1.1,15.2-1.1,28.8v23.5l2.5,2.4
	l2.4,2.5H424h75.1l2.4-2.5l2.5-2.4v-23.5c0-13.6-0.5-25.7-1.1-28.8c-3.3-15.5-15.5-28.7-30.9-33.6c-1.9-0.7-7.9-1.8-13.4-2.6
	c-5.4-0.8-10-1.7-10.2-1.9c-0.3-0.2,1.4-2.3,3.7-4.6c3.9-3.8,4.5-4.1,9.8-4.1c8.6,0,14.3-2.4,19.4-8c5.1-5.7,7.3-11.9,6.4-18.5
	c-0.7-4.9-3.6-11.4-6.1-13.4c-1.3-1.1-1.6-3.7-1.6-14.4c0-7.1-0.5-14.7-1.2-16.9c-1.4-4.9-7.6-12-12.2-14.2c-2.2-1-4.2-3-5.2-5.2
	c-2.2-4.6-9.3-10.8-14.2-12.2C442.5,7.8,404.5,7.7,398.6,9.1z M445.5,26.5c1.6,1.5,2.5,3.6,2.5,5.5c0,4.1,3.9,8,8,8
	c1.9,0,4,0.9,5.5,2.5c2.2,2.1,2.5,3.3,2.5,10.3v7.8l-10.3-10.3c-8.8-8.8-10.8-10.3-13.5-10.3c-2.2,0-3.9,0.8-5.2,2.2
	C423.6,55.5,422.6,56,402.7,56c-13.3,0-13.9,0.1-16.2,2.5l-2.5,2.4v-8.1c0-4.4,0.5-9.9,1.2-12.2c1.5-5.1,9.9-13.7,14.8-15.3
	c2-0.6,12-1.1,23.3-1.2C443,24,443.1,24,445.5,26.5z M444.7,64.2l3.3,3.2v11.9c0,15.2-1.1,18.9-7.5,25.2c-5.1,5.2-10.2,7.5-16.5,7.5
	c-6.3,0-11.4-2.3-16.5-7.5c-6.2-6.1-7.5-10.1-7.5-22.9V72h9.3c13,0,21-2.4,28.2-8.4c1.7-1.4,3.2-2.5,3.5-2.6
	C441.2,61,442.9,62.4,444.7,64.2z M384,86.4c0,3.5,0.3,7.1,0.6,8c1,2.6-3.3,2-6.1-0.9c-1.6-1.5-2.5-3.6-2.5-5.5c0-3.3,3.8-8,6.5-8
	C383.7,80,384,81.3,384,86.4z M469.5,82.5c1.6,1.5,2.5,3.6,2.5,5.5s-0.9,4-2.5,5.5c-2.8,2.9-7.1,3.5-6.1,0.9c0.3-0.9,0.6-4.5,0.6-8
	C464,79.1,465.3,78.2,469.5,82.5z M432,129.3c0,2.9-4.5,6.7-8,6.7s-8-3.8-8-6.7c0-1.6,1-1.8,8-1.8S432,127.7,432,129.3z
	 M403.4,139.9c2.2,4.1,8.9,9.6,13.5,10.9c8.8,2.7,16.6,0.7,23.1-5.8c2.5-2.5,5-5.3,5.5-6.3c1-1.7,1.5-1.7,11.5-0.2
	c12.7,1.9,17.6,4.1,23.5,10.7c6.5,7.3,7.5,11.5,7.5,33V200h-8h-8v-12v-12h-8h-8v12v12h-32h-32v-12v-12h-8h-8v12v12h-8h-8v-17.8
	c0-21.5,1-25.7,7.5-33c5.8-6.4,10.8-8.8,22-10.6C402,136.7,401.8,136.7,403.4,139.9z"/>
<path d="M249.5,129.4c-9.9,4.3-12.4,17.3-5,25.2l3.5,3.7l-0.2,61.1l-0.3,61.1l-6.4,0.7c-3.5,0.4-7,0.9-7.8,1.2
	c-1.1,0.4-1.3-3.7-1.3-22.6v-23l-8-8.2l-8-8.2v-15.1v-15l3.5-3.7c6.1-6.5,5.9-15.4-0.4-21.7c-6.5-6.5-15.7-6.5-22.2,0
	c-6.3,6.3-6.5,15.2-0.4,21.7l3.5,3.7v18.5v18.4l8,8.2l8,8.2v22v22l-6.7,2.9c-9.7,4.2-23.3,13.6-31.7,21.9
	c-34.7,34.3-43.3,86.3-21.5,129.9c12.1,24.2,32,42.7,57.3,53.2c29.1,12,63.2,11.1,91.3-2.7c23.1-11.2,40.7-29,51.9-52.3
	c18.6-38.8,14.1-81.8-12.2-116.8c-10.2-13.6-26.7-26.7-41.8-33.3l-6.6-2.8v-22v-22l8-8.2l8-8.2v-18.4v-18.5l3.5-3.7
	c6.1-6.5,5.9-15.4-0.4-21.7c-6.5-6.5-15.7-6.5-22.2,0c-6.3,6.3-6.5,15.2-0.4,21.7l3.5,3.7v15v15.1l-8,8.2l-8,8.2v23
	c0,18.9-0.2,23-1.3,22.6c-0.8-0.3-4.3-0.8-7.8-1.2l-6.4-0.7l-0.3-61.1l-0.2-61.1l3.5-3.7C279.3,142.1,265.3,122.5,249.5,129.4z
	 M279.1,298.9c18.2,4.7,32,12.8,45.4,26.5c12.7,13,20.7,27.4,25.2,45.2c2.7,10.7,2.4,33.4-0.6,44.4c-5,18.6-12,30.8-25.6,44.5
	c-13.4,13.4-26,20.7-44.5,25.7c-11,2.9-32.5,3.2-43.8,0.5c-18.6-4.4-33.3-12.7-46.8-26.1c-19.3-19.4-27.7-39.8-27.8-67.6
	c-0.1-15.3,1.6-24.3,6.6-36.5c12.8-30.5,41.7-53.3,74.5-58.5C250.7,295.6,270.4,296.6,279.1,298.9z"/>
<path d="M241,313.5c-33,6.7-57.2,31.2-63.6,64.3c-6.1,31.6,8.9,65,36.9,82.2c31.5,19.4,71.9,14.6,98.1-11.6
	c15.6-15.6,23.1-33.8,23.1-56.4c0-17.4-3.6-29.7-12.5-43.3C305.3,321.5,272,307.2,241,313.5z M269.5,329.5
	c21.4,4.4,40.9,22.3,47.6,43.5c7,22.3,0.8,46.9-16.1,64.1c-24.9,25.1-64.9,25.1-90.1,0c-19.7-19.8-24.3-48.1-12-73.5
	C211.6,337.6,240.7,323.5,269.5,329.5z"/>
<path d="M248,348.9c0,4.5-0.2,5-3,6.1c-6.8,2.8-13,12.9-13,21c0,12.3,11.6,24,23.9,24c4.2,0,8.1,3.8,8.1,8c0,4.1-3.9,8-8,8
	c-3.3,0-8-3.8-8-6.5c0-1.2-1.5-1.5-8-1.5c-8.9,0-9,0-6.8,7.2c1.4,4.8,7.6,12.1,11.8,13.8c2.8,1.1,3,1.6,3,6.1v4.9h8h8v-4.9
	c0-4.5,0.2-5,3-6.1c6.8-2.8,13-12.9,13-21c0-12.3-11.6-24-23.9-24c-4.2,0-8.1-3.8-8.1-8c0-4.1,3.9-8,8-8c3.3,0,8,3.8,8,6.5
	c0,1.2,1.5,1.5,8,1.5c8.9,0,9,0,6.8-7.2c-1.4-4.8-7.6-12.1-11.8-13.8c-2.8-1.1-3-1.6-3-6.1V344h-8h-8V348.9z"/>
<path d="M80.3,237.2c1,21.8,5.9,40.3,15.7,59.8c2.7,5.2,6.9,12.4,9.4,16l4.6,6.5l-11,0.3l-11,0.3v7.9v8h21.5
	c28.8,0,26.5,2.3,26.5-26.5V288h-8h-7.9l-0.3,8.7l-0.3,8.8l-3.8-6c-12-18.9-18.4-39.7-19.4-63.3L95.7,224h-8h-8L80.3,237.2z"/>
<path d="M379.2,310.5c17.4-15.9,29.3-34.2,36-55.5l2.2-6.8l-6.9,5.4l-6.9,5.4l-5.1-6.1l-5.1-6.1l16.5-13.8
	c22.1-18.5,18.8-18.8,37.3,3.3l13.8,16.5l-6.1,5.1l-6.1,5.1l-7.3-8.2l-7.3-8.2l-2,7.7c-6.6,24.8-22,49.7-42.3,68.3l-9.3,8.6
	l-5.1-6.1l-5.1-6.1L379.2,310.5z"/>
</svg>
