<svg id="Camada_1" data-name="Camada 1" xmlns="http://www.w3.org/2000/svg" viewBox="0 0 328 328"><defs><style>.cls-1,.cls-2{fill:none;stroke:#000;stroke-miterlimit:10;}.cls-1{stroke-width:4px;}.cls-2{stroke-width:3px;}</style></defs><circle class="cls-1" cx="164" cy="164" r="162"/><path d="M183,164.1c-50.12,38.34-77.92,59.93-78.26,60.83a5.56,5.56,0,0,0-.17,2.71c.23.9,18.1,16.18,55.59,47.47,45.9,38.23,55.59,46.06,56.95,46.06s16.69-11.5,79.49-59.53c56.21-43,78-59.88,78.2-60.89a5.93,5.93,0,0,0,0-2.65c-.17-.85-19.34-17.2-55.59-47.36-44.48-37.1-55.59-46.06-56.83-46.06S243.81,117.7,183,164.1Zm129.5-7.22c27.4,22.84,50.07,41.67,50.29,42,.4.34-57.45,44.88-136.77,105.37-4.57,3.5-8.63,6.26-9,6.09-.78-.28-100.46-83.33-100.46-83.67S261.45,115.44,262.07,115.44C262.41,115.39,285.13,134.05,312.53,156.88Z" transform="translate(-75.73 -85.01)"/><path d="M245.67,137.66a4.15,4.15,0,0,0-.12,6.09c.68.79,17.54,15.61,37.5,33C322.4,211.18,321,210.11,324,207c1.92-1.86,1.86-4.34-.11-6.42-1.18-1.24-58.46-51.42-71.66-62.75C250,135.8,247.53,135.74,245.67,137.66Z" transform="translate(-75.73 -85.01)"/><path d="M216.35,162.46a4.14,4.14,0,0,0-.11,6.09c.67.79,17.53,15.62,37.49,33,39.35,34.39,37.94,33.32,41,30.22,1.91-1.86,1.86-4.34-.12-6.43-1.29-1.35-39.91-35.18-66.86-58.57C220.41,160.43,218.89,159.87,216.35,162.46Z" transform="translate(-75.73 -85.01)"/><path d="M187,187.27a4.15,4.15,0,0,0-.11,6.09c.67.79,17.53,15.62,37.49,33,39.35,34.39,37.94,33.32,41,30.22,1.92-1.86,1.86-4.34-.11-6.43-1.19-1.24-58.47-51.42-71.66-62.75C191.32,185.41,188.89,185.35,187,187.27Z" transform="translate(-75.73 -85.01)"/><path d="M157.71,212.08a4.15,4.15,0,0,0-.11,6.09c.68.79,17.53,15.62,37.49,33,39.36,34.39,37.95,33.32,41,30.22,1.92-1.86,1.86-4.35-.11-6.43-1.19-1.24-58.47-51.42-71.66-62.75C162,210.22,159.57,210.16,157.71,212.08Z" transform="translate(-75.73 -85.01)"/><path d="M293.31,279.85c-67.26,51.36-75.83,57.79-76.79,57.17-.57-.34-24.64-20.3-53.51-44.32-56.77-47.36-54.12-45.38-57.17-42.28a4.26,4.26,0,0,0-.67,5.47c.34.5,25.37,21.48,55.53,46.62,44,36.65,55.25,45.73,56.49,45.73s18.72-13.08,78.77-59c42.39-32.42,77.58-59.48,78.14-60.1,2.25-2.65.06-7.21-3.5-7.21C369.31,222,354.2,233.22,293.31,279.85Z" transform="translate(-75.73 -85.01)"/><path d="M293.53,302.29c-41.49,31.74-75.77,57.79-76,57.79S193,340.17,163.75,315.82c-57.57-48-54.86-45.95-57.91-42.85a4.2,4.2,0,0,0-.17,6.09c.74.73,25.71,21.65,55.54,46.51,45,37.44,54.57,45.22,55.93,45.22s16.63-11.45,78.82-59c42.39-32.41,77.58-59.42,78.14-60.1,2.25-2.65.06-7.21-3.44-7.21C369.36,244.5,353.52,256.39,293.53,302.29Z" transform="translate(-75.73 -85.01)"/><path d="M293.31,325c-67.26,51.36-75.83,57.79-76.79,57.17-.57-.34-24.64-20.3-53.51-44.31-56.77-47.36-54.12-45.39-57.17-42.29a4.26,4.26,0,0,0-.67,5.47c.34.51,25.37,21.48,55.53,46.63,44,36.64,55.25,45.72,56.49,45.72s18.72-13.08,78.77-59c42.39-32.42,77.58-59.48,78.14-60.1,2.25-2.65.06-7.22-3.5-7.22C369.31,267.05,354.2,278.33,293.31,325Z" transform="translate(-75.73 -85.01)"/><line class="cls-2" x1="40.82" y1="271.4" x2="277.19" y2="46.9"/></svg>