<?xml version="1.0" standalone="no"?>
<!DOCTYPE svg PUBLIC "-//W3C//DTD SVG 20010904//EN"
 "http://www.w3.org/TR/2001/REC-SVG-20010904/DTD/svg10.dtd">
<svg version="1.0" xmlns="http://www.w3.org/2000/svg"
 width="512.000000pt" height="512.000000pt" viewBox="0 0 512.000000 512.000000"
 preserveAspectRatio="xMidYMid meet">

<g transform="translate(0.000000,512.000000) scale(0.100000,-0.100000)"
fill="#000000" stroke="none">
<path d="M2390 5109 c-209 -23 -447 -105 -619 -212 -305 -189 -534 -477 -649
-812 -65 -190 -82 -342 -82 -721 l0 -274 -245 0 -245 0 0 -1545 0 -1545 2010
0 2010 0 0 1545 0 1545 -245 0 -245 0 0 274 c0 379 -17 531 -82 721 -73 214
-187 399 -348 569 -321 337 -792 507 -1260 455z m369 -644 c323 -75 572 -319
663 -652 19 -70 22 -110 26 -400 l4 -323 -892 0 -892 0 4 323 c5 289 7 330 26
400 62 225 195 411 380 532 112 72 208 107 382 139 49 9 226 -2 299 -19z m-84
-2520 c214 -56 360 -279 325 -498 -14 -92 -69 -195 -135 -255 l-55 -51 0 -340
0 -341 -250 0 -250 0 0 341 0 340 -55 51 c-102 93 -155 242 -136 378 37 270
294 442 556 375z"/>
</g>
</svg>
