<svg id="Camada_1" data-name="Camada 1" xmlns="http://www.w3.org/2000/svg" viewBox="0 0 36.76 36.28"><defs><style>.cls-1{fill:#fff;}.cls-1,.cls-2{stroke:#000;stroke-miterlimit:10;fill-rule:evenodd;}.cls-2{fill:none;stroke-width:2.31px;}</style></defs><path class="cls-1" d="M53.08,36.81c-.84-.11-1.92-.47-2.11.65s1,1.08,1.77,1.24c5.31,1.16,7.13,3.06,8,8.2a4.11,4.11,0,0,1,.06.72c.07.61.21,1.15,1.14,1a.66.66,0,0,0,.65-.68c.07-.31,0-.73,0-1,0-4.95-4.3-9.44-9.57-10.09Zm.48,4.06c-.54,0-1.09.07-1.3.66-.32.84.34,1.07,1,1.18a3.79,3.79,0,0,1,3.54,3.68,1.4,1.4,0,0,0,.25.72.8.8,0,0,0,.72.27,1,1,0,0,0,.46-.12A1.45,1.45,0,0,0,58.6,46c0-2.38-2.7-5.14-5-5.08Zm-2.17-6.38C60,35.79,63.91,39.8,65,48.25v.21c.06.78-.09,1.79.94,1.79s1-.65,1-1.31a3.34,3.34,0,0,1,0-.61c.1-8-7-15.4-15.21-15.65-.66.1-1.92-.43-2,.94,0,.91,1.06.78,1.77.87Z" transform="translate(-31.59 -31.96)"/><path class="cls-2" d="M64.56,57.56c-1.07-.84-2.25-1.6-3.35-2.38-2.25-1.52-4.32-1.64-6,.82a2.66,2.66,0,0,1-3.65.84,15.78,15.78,0,0,1-8.47-8.07,4.88,4.88,0,0,1-.44-1.68,2.91,2.91,0,0,1,1.5-2.68C45.11,43.8,46,43.06,46,41.7c-.09-1.8-4.51-7.76-6.28-8.41a3.43,3.43,0,0,0-2.17,0c-4.11,1.37-5.8,4.66-4.17,8.55A46,46,0,0,0,36.45,48c5,8.42,12.46,14.58,22,18.6a11.07,11.07,0,0,0,1.79.49c2.68,0,5.8-2.51,6.7-5s-1-3.35-2.4-4.53Z" transform="translate(-31.59 -31.96)"/></svg>