<svg id="Camada_1" data-name="Camada 1" xmlns="http://www.w3.org/2000/svg" viewBox="0 0 48.5 48.83"><defs><style>.cls-1{fill:none;stroke:#000;stroke-miterlimit:10;stroke-width:2.31px;fill-rule:evenodd;}</style></defs><path class="cls-1" d="M61.19,54.27c-.56-.31-3.31-1.79-3.83-2s-.88-.31-1.29.24-1.54,1.8-1.89,2.17-.68.4-1.24.1a15.69,15.69,0,0,1-4.48-3,16.82,16.82,0,0,1-3-4.07c-.32-.58,0-.88.29-1.15s.59-.65.89-1a3.56,3.56,0,0,0,.61-.93,1.07,1.07,0,0,0,0-1c-.13-.29-1.17-3.14-1.6-4.3s-.92-1-1.25-1-.71-.07-1.09-.08a2.08,2.08,0,0,0-1.55.65,6.4,6.4,0,0,0-2.17,4.68c-.11,2.81,1.84,5.6,2.11,6s3.7,6.47,9.41,9,5.75,1.74,6.79,1.69,3.43-1.26,4-2.57a4.64,4.64,0,0,0,.43-2.7c-.13-.24-.51-.4-1.07-.7ZM50.71,26.84A22.35,22.35,0,0,0,31.58,60.73l-4,12,12.37-4A22.35,22.35,0,0,0,73.06,49.19,22.35,22.35,0,0,0,50.71,26.84Z" transform="translate(-25.72 -25.69)"/></svg>